<mxfile host="app.diagrams.net" modified="2023-02-28T22:54:57.198Z" agent="5.0 (Macintosh; Intel Mac OS X 10_15_7) AppleWebKit/537.36 (KHTML, like Gecko) Chrome/109.0.0.0 Safari/537.36" etag="Pj-pPmyn-GF3Uhb0V1z8" version="20.8.23" type="github">
  <diagram name="Page-1" id="SGeF-0iKZIM3F-TIsvuu">
    <mxGraphModel dx="1434" dy="807" grid="0" gridSize="10" guides="1" tooltips="1" connect="1" arrows="1" fold="1" page="1" pageScale="1" pageWidth="1500" pageHeight="800" math="0" shadow="0">
      <root>
        <mxCell id="0" />
        <mxCell id="1" parent="0" />
        <mxCell id="juZ4mGxKsOCgqzqKr75U-73" value="" style="group" vertex="1" connectable="0" parent="1">
          <mxGeometry x="80" y="96" width="1294" height="586" as="geometry" />
        </mxCell>
        <mxCell id="juZ4mGxKsOCgqzqKr75U-71" value="" style="group" vertex="1" connectable="0" parent="juZ4mGxKsOCgqzqKr75U-73">
          <mxGeometry width="1192" height="516" as="geometry" />
        </mxCell>
        <mxCell id="juZ4mGxKsOCgqzqKr75U-40" value="" style="rounded=0;whiteSpace=wrap;html=1;" vertex="1" parent="juZ4mGxKsOCgqzqKr75U-71">
          <mxGeometry x="207" y="298" width="740" height="218" as="geometry" />
        </mxCell>
        <mxCell id="juZ4mGxKsOCgqzqKr75U-7" value="" style="group" vertex="1" connectable="0" parent="juZ4mGxKsOCgqzqKr75U-71">
          <mxGeometry x="350" y="79.5" width="300" height="112" as="geometry" />
        </mxCell>
        <mxCell id="juZ4mGxKsOCgqzqKr75U-1" value="" style="rounded=0;whiteSpace=wrap;html=1;" vertex="1" parent="juZ4mGxKsOCgqzqKr75U-7">
          <mxGeometry width="300" height="112" as="geometry" />
        </mxCell>
        <mxCell id="juZ4mGxKsOCgqzqKr75U-2" value="&lt;b&gt;Wallet managers&lt;/b&gt;" style="rounded=0;whiteSpace=wrap;html=1;fillColor=#d5e8d4;strokeColor=#82b366;" vertex="1" parent="juZ4mGxKsOCgqzqKr75U-7">
          <mxGeometry x="21" y="12" width="107" height="35" as="geometry" />
        </mxCell>
        <mxCell id="juZ4mGxKsOCgqzqKr75U-3" value="&lt;b&gt;Signatories&lt;/b&gt;" style="rounded=0;whiteSpace=wrap;html=1;fillColor=#d5e8d4;strokeColor=#82b366;" vertex="1" parent="juZ4mGxKsOCgqzqKr75U-7">
          <mxGeometry x="167" y="12" width="107" height="35" as="geometry" />
        </mxCell>
        <mxCell id="juZ4mGxKsOCgqzqKr75U-4" value="&lt;b&gt;Number of signatures&lt;/b&gt;" style="rounded=0;whiteSpace=wrap;html=1;fillColor=#d5e8d4;strokeColor=#82b366;" vertex="1" parent="juZ4mGxKsOCgqzqKr75U-7">
          <mxGeometry x="21" y="64" width="107" height="35" as="geometry" />
        </mxCell>
        <mxCell id="juZ4mGxKsOCgqzqKr75U-6" value="&lt;b&gt;Methods&lt;/b&gt;" style="rounded=0;whiteSpace=wrap;html=1;fillColor=#d5e8d4;strokeColor=#82b366;" vertex="1" parent="juZ4mGxKsOCgqzqKr75U-7">
          <mxGeometry x="166" y="64" width="108" height="35" as="geometry" />
        </mxCell>
        <mxCell id="juZ4mGxKsOCgqzqKr75U-18" value="" style="group" vertex="1" connectable="0" parent="juZ4mGxKsOCgqzqKr75U-71">
          <mxGeometry y="20" width="166" height="231" as="geometry" />
        </mxCell>
        <mxCell id="juZ4mGxKsOCgqzqKr75U-15" value="" style="rounded=0;whiteSpace=wrap;html=1;" vertex="1" parent="juZ4mGxKsOCgqzqKr75U-18">
          <mxGeometry width="166" height="231" as="geometry" />
        </mxCell>
        <mxCell id="juZ4mGxKsOCgqzqKr75U-10" value="&lt;b&gt;&amp;nbsp;address&lt;/b&gt;: 0x00...&lt;br&gt;&lt;br&gt;&lt;b&gt;&amp;nbsp;recoveryHash&lt;/b&gt;: 0xa1..." style="rounded=0;whiteSpace=wrap;html=1;align=left;fillColor=#fff2cc;strokeColor=#d6b656;" vertex="1" parent="juZ4mGxKsOCgqzqKr75U-18">
          <mxGeometry x="17" y="113" width="132" height="58" as="geometry" />
        </mxCell>
        <mxCell id="juZ4mGxKsOCgqzqKr75U-11" value="&lt;b&gt;address&lt;/b&gt;: 0x01" style="rounded=0;whiteSpace=wrap;html=1;fillColor=#fff2cc;strokeColor=#d6b656;" vertex="1" parent="juZ4mGxKsOCgqzqKr75U-18">
          <mxGeometry x="35" y="32" width="96" height="31" as="geometry" />
        </mxCell>
        <mxCell id="juZ4mGxKsOCgqzqKr75U-12" value="Number of ssignatures" style="rounded=0;whiteSpace=wrap;html=1;fillColor=#fff2cc;strokeColor=#d6b656;" vertex="1" parent="juZ4mGxKsOCgqzqKr75U-18">
          <mxGeometry x="17" y="194" width="132" height="28" as="geometry" />
        </mxCell>
        <mxCell id="juZ4mGxKsOCgqzqKr75U-16" value="managers" style="text;html=1;align=center;verticalAlign=middle;resizable=0;points=[];autosize=1;strokeColor=none;fillColor=none;" vertex="1" parent="juZ4mGxKsOCgqzqKr75U-18">
          <mxGeometry x="47.5" y="6" width="71" height="26" as="geometry" />
        </mxCell>
        <mxCell id="juZ4mGxKsOCgqzqKr75U-17" value="signatories" style="text;html=1;align=center;verticalAlign=middle;resizable=0;points=[];autosize=1;strokeColor=none;fillColor=none;" vertex="1" parent="juZ4mGxKsOCgqzqKr75U-18">
          <mxGeometry x="45" y="87" width="76" height="26" as="geometry" />
        </mxCell>
        <mxCell id="juZ4mGxKsOCgqzqKr75U-19" value="" style="shape=flexArrow;endArrow=classic;html=1;rounded=0;" edge="1" parent="juZ4mGxKsOCgqzqKr75U-71">
          <mxGeometry width="50" height="50" relative="1" as="geometry">
            <mxPoint x="189" y="135" as="sourcePoint" />
            <mxPoint x="324" y="135" as="targetPoint" />
          </mxGeometry>
        </mxCell>
        <mxCell id="juZ4mGxKsOCgqzqKr75U-20" value="contract deployment" style="text;html=1;align=center;verticalAlign=middle;resizable=0;points=[];autosize=1;strokeColor=none;fillColor=none;" vertex="1" parent="juZ4mGxKsOCgqzqKr75U-71">
          <mxGeometry x="185" y="94" width="126" height="26" as="geometry" />
        </mxCell>
        <mxCell id="juZ4mGxKsOCgqzqKr75U-21" value="&lt;b&gt;smart contract&lt;/b&gt;" style="text;html=1;align=center;verticalAlign=middle;resizable=0;points=[];autosize=1;strokeColor=#b85450;fillColor=#f8cecc;" vertex="1" parent="juZ4mGxKsOCgqzqKr75U-71">
          <mxGeometry x="449.5" y="40" width="101" height="26" as="geometry" />
        </mxCell>
        <mxCell id="juZ4mGxKsOCgqzqKr75U-22" value="submit a transaction" style="swimlane;whiteSpace=wrap;html=1;fillColor=#d5e8d4;strokeColor=#82b366;" vertex="1" parent="juZ4mGxKsOCgqzqKr75U-71">
          <mxGeometry x="227" y="315" width="200" height="184" as="geometry" />
        </mxCell>
        <mxCell id="juZ4mGxKsOCgqzqKr75U-25" value="only signatories" style="text;html=1;align=left;verticalAlign=middle;resizable=0;points=[];autosize=1;strokeColor=none;fillColor=none;" vertex="1" parent="juZ4mGxKsOCgqzqKr75U-22">
          <mxGeometry x="9" y="33" width="101" height="26" as="geometry" />
        </mxCell>
        <mxCell id="juZ4mGxKsOCgqzqKr75U-27" value="&lt;b&gt;Inputs&lt;/b&gt;:&lt;br&gt;&lt;ul&gt;&lt;li&gt;target contract&lt;/li&gt;&lt;/ul&gt;&lt;ul&gt;&lt;li&gt;amount of ETH to send&lt;/li&gt;&lt;/ul&gt;&lt;ul&gt;&lt;li&gt;function to execute&lt;/li&gt;&lt;/ul&gt;" style="text;html=1;align=left;verticalAlign=middle;resizable=0;points=[];autosize=1;strokeColor=none;fillColor=none;" vertex="1" parent="juZ4mGxKsOCgqzqKr75U-22">
          <mxGeometry x="9" y="59" width="181" height="118" as="geometry" />
        </mxCell>
        <mxCell id="juZ4mGxKsOCgqzqKr75U-34" value="execute transaction" style="swimlane;whiteSpace=wrap;html=1;fillColor=#d5e8d4;strokeColor=#82b366;" vertex="1" parent="juZ4mGxKsOCgqzqKr75U-71">
          <mxGeometry x="770" y="379.5" width="157.5" height="55" as="geometry" />
        </mxCell>
        <mxCell id="juZ4mGxKsOCgqzqKr75U-38" value="&lt;span style=&quot;font-weight: normal;&quot;&gt;only signatories&lt;/span&gt;" style="text;html=1;align=center;verticalAlign=middle;resizable=0;points=[];autosize=1;strokeColor=none;fillColor=none;fontStyle=1" vertex="1" parent="juZ4mGxKsOCgqzqKr75U-34">
          <mxGeometry x="28.75" y="26" width="101" height="26" as="geometry" />
        </mxCell>
        <mxCell id="juZ4mGxKsOCgqzqKr75U-41" value="" style="shape=flexArrow;endArrow=classic;html=1;rounded=0;fillColor=#e1d5e7;strokeColor=#9673a6;" edge="1" parent="juZ4mGxKsOCgqzqKr75U-71">
          <mxGeometry width="50" height="50" relative="1" as="geometry">
            <mxPoint x="440" y="406.5" as="sourcePoint" />
            <mxPoint x="501" y="406.5" as="targetPoint" />
          </mxGeometry>
        </mxCell>
        <mxCell id="juZ4mGxKsOCgqzqKr75U-42" value="" style="shape=flexArrow;endArrow=classic;html=1;rounded=0;fillColor=#e1d5e7;strokeColor=#9673a6;" edge="1" parent="juZ4mGxKsOCgqzqKr75U-71">
          <mxGeometry width="50" height="50" relative="1" as="geometry">
            <mxPoint x="689" y="406.5" as="sourcePoint" />
            <mxPoint x="750" y="406.5" as="targetPoint" />
          </mxGeometry>
        </mxCell>
        <mxCell id="juZ4mGxKsOCgqzqKr75U-43" value="" style="edgeStyle=elbowEdgeStyle;elbow=vertical;endArrow=classic;html=1;curved=0;rounded=0;endSize=8;startSize=8;entryX=0.66;entryY=1.013;entryDx=0;entryDy=0;entryPerimeter=0;" edge="1" parent="juZ4mGxKsOCgqzqKr75U-71" target="juZ4mGxKsOCgqzqKr75U-1">
          <mxGeometry width="50" height="50" relative="1" as="geometry">
            <mxPoint x="320" y="312" as="sourcePoint" />
            <mxPoint x="547" y="199" as="targetPoint" />
          </mxGeometry>
        </mxCell>
        <mxCell id="juZ4mGxKsOCgqzqKr75U-44" value="signatures" style="swimlane;whiteSpace=wrap;html=1;" vertex="1" parent="juZ4mGxKsOCgqzqKr75U-71">
          <mxGeometry x="917" y="59.5" width="98" height="152" as="geometry" />
        </mxCell>
        <mxCell id="juZ4mGxKsOCgqzqKr75U-45" value="signature 1" style="rounded=0;whiteSpace=wrap;html=1;fillColor=#ffe6cc;strokeColor=#d79b00;" vertex="1" parent="juZ4mGxKsOCgqzqKr75U-44">
          <mxGeometry x="10" y="36" width="75" height="23" as="geometry" />
        </mxCell>
        <mxCell id="juZ4mGxKsOCgqzqKr75U-46" value="signature 2" style="rounded=0;whiteSpace=wrap;html=1;fillColor=#ffe6cc;strokeColor=#d79b00;" vertex="1" parent="juZ4mGxKsOCgqzqKr75U-44">
          <mxGeometry x="10" y="74" width="75" height="23" as="geometry" />
        </mxCell>
        <mxCell id="juZ4mGxKsOCgqzqKr75U-47" value="signature 3" style="rounded=0;whiteSpace=wrap;html=1;fillColor=#ffe6cc;strokeColor=#d79b00;" vertex="1" parent="juZ4mGxKsOCgqzqKr75U-44">
          <mxGeometry x="10" y="115" width="75" height="23" as="geometry" />
        </mxCell>
        <mxCell id="juZ4mGxKsOCgqzqKr75U-48" value="sign transaction" style="swimlane;whiteSpace=wrap;html=1;fillColor=#d5e8d4;strokeColor=#82b366;" vertex="1" parent="juZ4mGxKsOCgqzqKr75U-71">
          <mxGeometry x="515" y="379.5" width="157.5" height="55" as="geometry" />
        </mxCell>
        <mxCell id="juZ4mGxKsOCgqzqKr75U-49" value="&lt;span style=&quot;font-weight: normal;&quot;&gt;only signatories&lt;/span&gt;" style="text;html=1;align=center;verticalAlign=middle;resizable=0;points=[];autosize=1;strokeColor=none;fillColor=none;fontStyle=1" vertex="1" parent="juZ4mGxKsOCgqzqKr75U-48">
          <mxGeometry x="28.75" y="26" width="101" height="26" as="geometry" />
        </mxCell>
        <mxCell id="juZ4mGxKsOCgqzqKr75U-51" value="Transaction created" style="rounded=0;whiteSpace=wrap;html=1;fillColor=#f5f5f5;strokeColor=#666666;fontColor=#333333;" vertex="1" parent="juZ4mGxKsOCgqzqKr75U-71">
          <mxGeometry x="739" y="120" width="117" height="31" as="geometry" />
        </mxCell>
        <mxCell id="juZ4mGxKsOCgqzqKr75U-52" value="Transaction executed" style="rounded=0;whiteSpace=wrap;html=1;fillColor=#f5f5f5;strokeColor=#666666;fontColor=#333333;" vertex="1" parent="juZ4mGxKsOCgqzqKr75U-71">
          <mxGeometry x="1067" y="120" width="125" height="31" as="geometry" />
        </mxCell>
        <mxCell id="juZ4mGxKsOCgqzqKr75U-54" value="" style="edgeStyle=elbowEdgeStyle;elbow=vertical;endArrow=classic;html=1;curved=0;rounded=0;endSize=8;startSize=8;entryX=0.837;entryY=1.004;entryDx=0;entryDy=0;entryPerimeter=0;" edge="1" parent="juZ4mGxKsOCgqzqKr75U-71" target="juZ4mGxKsOCgqzqKr75U-1">
          <mxGeometry width="50" height="50" relative="1" as="geometry">
            <mxPoint x="846" y="377" as="sourcePoint" />
            <mxPoint x="1074" y="258" as="targetPoint" />
          </mxGeometry>
        </mxCell>
        <mxCell id="juZ4mGxKsOCgqzqKr75U-56" value="" style="endArrow=classic;html=1;rounded=0;entryX=0.75;entryY=1;entryDx=0;entryDy=0;" edge="1" parent="juZ4mGxKsOCgqzqKr75U-71" target="juZ4mGxKsOCgqzqKr75U-1">
          <mxGeometry width="50" height="50" relative="1" as="geometry">
            <mxPoint x="574" y="379.5" as="sourcePoint" />
            <mxPoint x="624" y="329.5" as="targetPoint" />
          </mxGeometry>
        </mxCell>
        <mxCell id="juZ4mGxKsOCgqzqKr75U-58" value="" style="edgeStyle=elbowEdgeStyle;elbow=vertical;endArrow=classic;html=1;curved=0;rounded=0;endSize=8;startSize=8;entryX=0.25;entryY=0;entryDx=0;entryDy=0;" edge="1" parent="juZ4mGxKsOCgqzqKr75U-71" target="juZ4mGxKsOCgqzqKr75U-51">
          <mxGeometry width="50" height="50" relative="1" as="geometry">
            <mxPoint x="650" y="96" as="sourcePoint" />
            <mxPoint x="742" y="166" as="targetPoint" />
            <Array as="points">
              <mxPoint x="695" y="96" />
            </Array>
          </mxGeometry>
        </mxCell>
        <mxCell id="juZ4mGxKsOCgqzqKr75U-59" value="" style="edgeStyle=elbowEdgeStyle;elbow=vertical;endArrow=classic;html=1;curved=0;rounded=0;endSize=8;startSize=8;entryX=0.5;entryY=0;entryDx=0;entryDy=0;" edge="1" parent="juZ4mGxKsOCgqzqKr75U-71" target="juZ4mGxKsOCgqzqKr75U-44">
          <mxGeometry width="50" height="50" relative="1" as="geometry">
            <mxPoint x="626" y="79.5" as="sourcePoint" />
            <mxPoint x="676" y="29.5" as="targetPoint" />
            <Array as="points">
              <mxPoint x="655" y="14" />
            </Array>
          </mxGeometry>
        </mxCell>
        <mxCell id="juZ4mGxKsOCgqzqKr75U-60" value="" style="edgeStyle=elbowEdgeStyle;elbow=vertical;endArrow=classic;html=1;curved=0;rounded=0;endSize=8;startSize=8;entryX=0.5;entryY=0;entryDx=0;entryDy=0;" edge="1" parent="juZ4mGxKsOCgqzqKr75U-71" target="juZ4mGxKsOCgqzqKr75U-52">
          <mxGeometry width="50" height="50" relative="1" as="geometry">
            <mxPoint x="612" y="79.5" as="sourcePoint" />
            <mxPoint x="952" y="60" as="targetPoint" />
            <Array as="points">
              <mxPoint x="870" />
            </Array>
          </mxGeometry>
        </mxCell>
        <mxCell id="juZ4mGxKsOCgqzqKr75U-70" value="" style="edgeStyle=segmentEdgeStyle;endArrow=classic;html=1;curved=0;rounded=0;endSize=8;startSize=8;exitX=0.004;exitY=0.107;exitDx=0;exitDy=0;exitPerimeter=0;entryX=0.923;entryY=0.987;entryDx=0;entryDy=0;entryPerimeter=0;" edge="1" parent="juZ4mGxKsOCgqzqKr75U-73" source="juZ4mGxKsOCgqzqKr75U-69" target="juZ4mGxKsOCgqzqKr75U-1">
          <mxGeometry width="50" height="50" relative="1" as="geometry">
            <mxPoint x="871" y="273" as="sourcePoint" />
            <mxPoint x="921" y="223" as="targetPoint" />
          </mxGeometry>
        </mxCell>
        <mxCell id="juZ4mGxKsOCgqzqKr75U-72" value="" style="group" vertex="1" connectable="0" parent="juZ4mGxKsOCgqzqKr75U-73">
          <mxGeometry x="1040" y="232" width="254" height="354" as="geometry" />
        </mxCell>
        <mxCell id="juZ4mGxKsOCgqzqKr75U-69" value="" style="rounded=0;whiteSpace=wrap;html=1;" vertex="1" parent="juZ4mGxKsOCgqzqKr75U-72">
          <mxGeometry width="254" height="354" as="geometry" />
        </mxCell>
        <mxCell id="juZ4mGxKsOCgqzqKr75U-62" value="recover waller" style="swimlane;whiteSpace=wrap;html=1;fillColor=#d5e8d4;strokeColor=#82b366;" vertex="1" parent="juZ4mGxKsOCgqzqKr75U-72">
          <mxGeometry x="27" y="83" width="200" height="200" as="geometry" />
        </mxCell>
        <mxCell id="juZ4mGxKsOCgqzqKr75U-63" value="&lt;b&gt;Inputs&lt;/b&gt;:&lt;br&gt;&lt;ul&gt;&lt;li&gt;old public key - address&lt;/li&gt;&lt;/ul&gt;&lt;ul&gt;&lt;li&gt;new public key - address&lt;/li&gt;&lt;/ul&gt;&lt;ul&gt;&lt;li&gt;recovery phrase&lt;/li&gt;&lt;/ul&gt;&lt;ul&gt;&lt;li&gt;new recovery hash&lt;/li&gt;&lt;/ul&gt;" style="text;html=1;align=left;verticalAlign=middle;resizable=0;points=[];autosize=1;strokeColor=none;fillColor=none;" vertex="1" parent="juZ4mGxKsOCgqzqKr75U-62">
          <mxGeometry x="5" y="45.5" width="190" height="144" as="geometry" />
        </mxCell>
        <mxCell id="juZ4mGxKsOCgqzqKr75U-64" value="pause wallet&lt;br&gt;wallet manager only" style="rounded=0;whiteSpace=wrap;html=1;fillColor=#d5e8d4;strokeColor=#82b366;" vertex="1" parent="juZ4mGxKsOCgqzqKr75U-72">
          <mxGeometry x="70.5" y="21" width="113" height="30" as="geometry" />
        </mxCell>
        <mxCell id="juZ4mGxKsOCgqzqKr75U-65" value="unpause wallet&lt;br&gt;wallet manager only" style="rounded=0;whiteSpace=wrap;html=1;fillColor=#d5e8d4;strokeColor=#82b366;" vertex="1" parent="juZ4mGxKsOCgqzqKr75U-72">
          <mxGeometry x="75.5" y="312" width="116" height="30" as="geometry" />
        </mxCell>
      </root>
    </mxGraphModel>
  </diagram>
</mxfile>
